<svg width="499" height="100" viewBox="0 0 499 100" fill="none" xmlns="http://www.w3.org/2000/svg">
<rect width="499" height="100" rx="50" fill="white"/>
<path d="M44.1023 51.415V59.5H42.1498V40.1125H47.9523C50.134 40.1125 51.7565 40.6167 52.8198 41.625C53.9015 42.6333 54.4423 44.0175 54.4423 45.7775C54.4423 47.5742 53.8831 48.9675 52.7648 49.9575C51.6648 50.9292 50.0606 51.415 47.9523 51.415H44.1023ZM47.7873 49.765C49.4556 49.765 50.6565 49.4258 51.3898 48.7475C52.1231 48.0508 52.4898 47.0608 52.4898 45.7775C52.4898 44.4575 52.1231 43.4583 51.3898 42.78C50.6565 42.0833 49.4556 41.735 47.7873 41.735H44.1023V49.765H47.7873ZM64.2768 44.2925C65.7068 44.2925 66.981 44.6042 68.0993 45.2275C69.236 45.8325 70.1251 46.7217 70.7668 47.895C71.4085 49.05 71.7293 50.4158 71.7293 51.9925C71.7293 53.5692 71.4085 54.935 70.7668 56.09C70.1251 57.245 69.236 58.1342 68.0993 58.7575C66.981 59.3808 65.7068 59.6925 64.2768 59.6925C62.8468 59.6925 61.5635 59.3808 60.4268 58.7575C59.2901 58.1342 58.3918 57.245 57.7318 56.09C57.0901 54.9167 56.7693 53.5508 56.7693 51.9925C56.7693 50.4158 57.0901 49.05 57.7318 47.895C58.3918 46.7217 59.2901 45.8325 60.4268 45.2275C61.5635 44.6042 62.8468 44.2925 64.2768 44.2925ZM64.2768 45.97C63.2868 45.97 62.3701 46.19 61.5268 46.63C60.6835 47.07 60.0051 47.7483 59.4918 48.665C58.9785 49.5633 58.7218 50.6725 58.7218 51.9925C58.7218 53.3125 58.9785 54.4217 59.4918 55.32C60.0051 56.2183 60.6835 56.8875 61.5268 57.3275C62.3701 57.7675 63.2868 57.9875 64.2768 57.9875C65.2485 57.9875 66.1468 57.7675 66.9718 57.3275C67.8151 56.8875 68.4935 56.2183 69.0068 55.32C69.5201 54.4217 69.7768 53.3125 69.7768 51.9925C69.7768 50.6725 69.5201 49.5633 69.0068 48.665C68.4935 47.7483 67.8151 47.07 66.9718 46.63C66.1468 46.19 65.2485 45.97 64.2768 45.97ZM95.477 44.485L91.0495 59.5H89.0145L84.5045 46.74L79.9395 59.5H77.932L73.5045 44.485H75.457L79.032 57.4925L83.542 44.485H85.522L90.0595 57.4925L93.607 44.485H95.477ZM104.5 58.0975C105.857 58.0975 106.994 57.7583 107.91 57.08C108.827 56.4017 109.377 55.485 109.56 54.33H111.595C111.32 55.925 110.56 57.2175 109.313 58.2075C108.066 59.1975 106.49 59.6925 104.583 59.6925C103.153 59.6925 101.879 59.39 100.76 58.785C99.6605 58.1617 98.7988 57.2725 98.1755 56.1175C97.5521 54.9442 97.2405 53.5692 97.2405 51.9925C97.2405 50.4158 97.5521 49.05 98.1755 47.895C98.7988 46.7217 99.6605 45.8325 100.76 45.2275C101.879 44.6042 103.153 44.2925 104.583 44.2925C106.05 44.2925 107.315 44.6042 108.378 45.2275C109.46 45.8325 110.275 46.6483 110.825 47.675C111.394 48.7017 111.678 49.82 111.678 51.03C111.678 51.5433 111.641 52.0108 111.568 52.4325H99.138C99.1563 53.6975 99.413 54.7608 99.908 55.6225C100.421 56.4658 101.081 57.0892 101.888 57.4925C102.695 57.8958 103.565 58.0975 104.5 58.0975ZM104.583 45.86C103.611 45.86 102.722 46.0617 101.915 46.465C101.109 46.8683 100.449 47.4917 99.9355 48.335C99.4405 49.16 99.1746 50.1958 99.138 51.4425H109.753C109.826 50.2142 109.625 49.1783 109.148 48.335C108.671 47.4917 108.03 46.8683 107.223 46.465C106.416 46.0617 105.536 45.86 104.583 45.86ZM117.095 47.5925C117.535 46.5108 118.241 45.6767 119.213 45.09C120.185 44.5033 121.367 44.21 122.76 44.21V46.3H122.128C120.68 46.3 119.479 46.6942 118.525 47.4825C117.572 48.2525 117.095 49.5175 117.095 51.2775V59.5H115.143V44.485H117.095V47.5925ZM131.866 58.0975C133.223 58.0975 134.36 57.7583 135.276 57.08C136.193 56.4017 136.743 55.485 136.926 54.33H138.961C138.686 55.925 137.925 57.2175 136.679 58.2075C135.432 59.1975 133.855 59.6925 131.949 59.6925C130.519 59.6925 129.245 59.39 128.126 58.785C127.026 58.1617 126.165 57.2725 125.541 56.1175C124.918 54.9442 124.606 53.5692 124.606 51.9925C124.606 50.4158 124.918 49.05 125.541 47.895C126.165 46.7217 127.026 45.8325 128.126 45.2275C129.245 44.6042 130.519 44.2925 131.949 44.2925C133.415 44.2925 134.68 44.6042 135.744 45.2275C136.825 45.8325 137.641 46.6483 138.191 47.675C138.76 48.7017 139.044 49.82 139.044 51.03C139.044 51.5433 139.007 52.0108 138.934 52.4325H126.504C126.522 53.6975 126.779 54.7608 127.274 55.6225C127.787 56.4658 128.447 57.0892 129.254 57.4925C130.06 57.8958 130.931 58.0975 131.866 58.0975ZM131.949 45.86C130.977 45.86 130.088 46.0617 129.281 46.465C128.475 46.8683 127.815 47.4917 127.301 48.335C126.806 49.16 126.54 50.1958 126.504 51.4425H137.119C137.192 50.2142 136.99 49.1783 136.514 48.335C136.037 47.4917 135.395 46.8683 134.589 46.465C133.782 46.0617 132.902 45.86 131.949 45.86ZM148.834 44.2925C150.355 44.2925 151.648 44.6867 152.711 45.475C153.793 46.2633 154.526 47.3083 154.911 48.61V39.15H156.836V59.5H154.911V55.375C154.526 56.6767 153.793 57.7217 152.711 58.51C151.648 59.2983 150.355 59.6925 148.834 59.6925C147.477 59.6925 146.258 59.3808 145.176 58.7575C144.113 58.1342 143.279 57.245 142.674 56.09C142.087 54.9167 141.794 53.5508 141.794 51.9925C141.794 50.4158 142.087 49.05 142.674 47.895C143.279 46.7217 144.113 45.8325 145.176 45.2275C146.24 44.6042 147.459 44.2925 148.834 44.2925ZM149.329 45.9975C147.642 45.9975 146.285 46.5383 145.259 47.62C144.25 48.6833 143.746 50.1408 143.746 51.9925C143.746 53.8442 144.25 55.3108 145.259 56.3925C146.285 57.4558 147.642 57.9875 149.329 57.9875C150.392 57.9875 151.345 57.74 152.189 57.245C153.05 56.75 153.72 56.0533 154.196 55.155C154.691 54.2383 154.939 53.1842 154.939 51.9925C154.939 50.8008 154.691 49.7558 154.196 48.8575C153.72 47.9408 153.05 47.235 152.189 46.74C151.345 46.245 150.392 45.9975 149.329 45.9975ZM176.186 44.2925C177.561 44.2925 178.771 44.6042 179.816 45.2275C180.879 45.8325 181.704 46.7217 182.291 47.895C182.896 49.05 183.198 50.4158 183.198 51.9925C183.198 53.5508 182.896 54.9167 182.291 56.09C181.704 57.245 180.879 58.1342 179.816 58.7575C178.752 59.3808 177.542 59.6925 176.186 59.6925C174.646 59.6925 173.344 59.2983 172.281 58.51C171.217 57.7217 170.484 56.6767 170.081 55.375V59.5H168.156V39.15H170.081V48.61C170.484 47.3083 171.217 46.2633 172.281 45.475C173.344 44.6867 174.646 44.2925 176.186 44.2925ZM175.663 45.9975C174.6 45.9975 173.637 46.245 172.776 46.74C171.932 47.235 171.272 47.9408 170.796 48.8575C170.319 49.7558 170.081 50.8008 170.081 51.9925C170.081 53.1842 170.319 54.2383 170.796 55.155C171.272 56.0533 171.932 56.75 172.776 57.245C173.637 57.74 174.6 57.9875 175.663 57.9875C177.368 57.9875 178.725 57.4558 179.733 56.3925C180.742 55.3108 181.246 53.8442 181.246 51.9925C181.246 50.1408 180.742 48.6833 179.733 47.62C178.725 46.5383 177.368 45.9975 175.663 45.9975ZM187.072 44.485L192.297 56.9975L197.109 44.485H199.254L190.427 66.595H188.227L191.252 59.335L184.927 44.485H187.072Z" fill="#252525"/>
<path fill-rule="evenodd" clip-rule="evenodd" d="M237.418 30.1137C226.416 30.1137 217.465 39.0346 217.465 50C217.465 60.9654 226.416 69.8863 237.418 69.8863C248.421 69.8863 257.372 60.9654 257.372 50C257.372 39.0346 248.421 30.1137 237.418 30.1137ZM237.418 75C223.586 75 212.334 63.7852 212.334 50C212.334 36.2152 223.586 25 237.418 25C251.25 25 262.503 36.2152 262.503 50C262.503 63.7852 251.25 75 237.418 75Z" fill="#00AECA"/>
<path fill-rule="evenodd" clip-rule="evenodd" d="M248.707 43.5333L226.131 50V43.9667L248.707 37.5V43.5333Z" fill="#EC6A5A"/>
<path fill-rule="evenodd" clip-rule="evenodd" d="M248.707 56.0335L226.131 62.5V56.4669L248.707 50V56.0335Z" fill="#007270"/>
<path fill-rule="evenodd" clip-rule="evenodd" d="M282.356 52.6135H278.219V58.5427H282.313C284.359 58.5427 286.188 57.8397 286.188 55.424C286.188 53.0969 284.272 52.6135 282.356 52.6135ZM281.398 40.6241H278.219V45.6745H281.354C283.139 45.6745 284.62 45.1474 284.62 43.0835C284.62 41.0196 283.097 40.6241 281.398 40.6241ZM291.109 63.0223C287.799 65.8765 284.751 65.8329 280.57 65.8329H270.337V33.334H280.265C284.141 33.334 287.799 33.3776 290.586 36.4957C291.937 37.9895 292.502 39.8339 292.502 41.8541C292.502 44.6204 291.153 47.0361 288.758 48.3977C292.284 49.6277 294.07 52.2623 294.07 55.9517C294.07 58.5427 293.112 61.3095 291.109 63.0223Z" fill="#1D1D1B"/>
<path fill-rule="evenodd" clip-rule="evenodd" d="M311.185 65.8323V52.5693C311.185 49.9341 310.446 47.4747 307.31 47.4747C304.175 47.4747 303.26 49.5386 303.26 52.3061V65.8323H296.03V33.3335H303.26V43.698H303.347C304.61 41.4139 307.136 40.6237 309.574 40.6237C311.926 40.6237 314.582 41.4582 316.15 43.3026C318.458 45.9815 318.415 48.8806 318.415 52.2176V65.8323H311.185Z" fill="#1D1D1B"/>
<path fill-rule="evenodd" clip-rule="evenodd" d="M333.439 47.4309C329.912 47.4309 327.473 50.2421 327.473 53.7113C327.473 57.0925 330.086 59.8594 333.483 59.8594C337.009 59.8594 339.536 57.1368 339.536 53.6233C339.536 50.0662 336.966 47.4309 333.439 47.4309ZM339.536 65.8322V63.197H339.448C338.142 65.7012 335.007 66.6668 332.394 66.6668C324.948 66.6668 320.244 60.8698 320.244 53.6233C320.244 46.5084 325.121 40.6235 332.394 40.6235C335.05 40.6235 338.011 41.634 339.448 44.0491H339.536V41.4581H346.764V65.8322H339.536Z" fill="#1D1D1B"/>
<path fill-rule="evenodd" clip-rule="evenodd" d="M357.044 52.4376V65.8322H349.814V41.4581H356.608V44.0491H356.695C357.959 41.546 359.961 40.6235 362.748 40.6235V47.958C359.569 48.0459 357.044 48.6603 357.044 52.4376Z" fill="#1D1D1B"/>
<path fill-rule="evenodd" clip-rule="evenodd" d="M376.291 47.4309C372.764 47.4309 370.326 50.2421 370.326 53.7113C370.326 57.0925 372.937 59.8594 376.334 59.8594C379.862 59.8594 382.388 57.1368 382.388 53.6233C382.388 50.0662 379.818 47.4309 376.291 47.4309ZM382.388 65.8322V63.197H382.301C380.995 65.7012 377.859 66.6668 375.246 66.6668C367.799 66.6668 363.096 60.8698 363.096 53.6233C363.096 46.5084 367.973 40.6235 375.246 40.6235C377.903 40.6235 380.864 41.634 382.301 44.0491H382.388V41.4581H389.617V65.8322H382.388Z" fill="#1D1D1B"/>
<path fill-rule="evenodd" clip-rule="evenodd" d="M402.684 46.9919V65.8323H395.455V46.9919H391.885V41.4582H395.455V33.3335H402.684V41.4582H406.168V46.9919H402.684Z" fill="#1D1D1B"/>
<path fill-rule="evenodd" clip-rule="evenodd" d="M420.539 40.6237H417.49V48.3529H420.844C423.543 48.3529 425.982 47.7385 425.982 44.4446C425.982 41.0628 423.238 40.6237 420.539 40.6237ZM430.467 52.8332C427.68 55.2925 424.675 55.6437 421.06 55.6437H417.49V65.8323H409.607V33.3335H420.147C423.456 33.3335 427.418 33.4651 430.076 35.7049C432.6 37.8568 433.865 40.9748 433.865 44.313C433.865 47.2988 432.732 50.8123 430.467 52.8332Z" fill="#00AECA"/>
<mask id="mask0" style="mask-type:alpha" maskUnits="userSpaceOnUse" x="433" y="40" width="27" height="27">
<path d="M433.732 40.6235H459.165V66.6225H433.732V40.6235Z" fill="white"/>
</mask>
<g mask="url(#mask0)">
<path fill-rule="evenodd" clip-rule="evenodd" d="M446.448 46.7723C443.836 46.7723 441.528 48.3091 440.961 50.9444H451.935C451.369 48.3091 449.061 46.7723 446.448 46.7723ZM458.99 55.8631H440.874C441.31 58.7616 443.705 60.4744 446.535 60.4744C448.495 60.4744 449.758 59.6835 450.933 58.1903H458.337C456.247 63.0653 451.979 66.6225 446.535 66.6225C439.481 66.6225 433.732 60.8261 433.732 53.7113C433.732 46.6407 439.307 40.6235 446.406 40.6235C453.807 40.6235 459.165 46.5964 459.165 53.9308C459.165 54.5895 459.121 55.2045 458.99 55.8631Z" fill="#00AECA"/>
</g>
</svg>