<svg width="133" height="30" viewBox="0 0 133 30" fill="none" xmlns="http://www.w3.org/2000/svg">
<path d="M10.967 24.53C9.93288 24.5851 8.89951 24.4091 7.94164 24.0148C6.98378 23.6205 6.12538 23.0177 5.42859 22.25V30H0V5.59002H5.1392V7.59002H5.23899C5.91633 6.73635 6.78335 6.05309 7.77091 5.59473C8.75847 5.13638 9.83925 4.91561 10.927 4.95002C16.5951 4.95002 19.8483 9.60002 19.8483 14.95C19.8483 20.04 16.2958 24.53 10.967 24.53ZM9.80939 10.08C8.88608 10.0681 7.98006 10.3314 7.20631 10.8364C6.43255 11.3414 5.82594 12.0653 5.46346 12.9164C5.10097 13.7674 4.99894 14.7072 5.17033 15.6164C5.34171 16.5257 5.77878 17.3634 6.42607 18.0233C7.07336 18.6832 7.9017 19.1355 8.80595 19.3229C9.71021 19.5103 10.6496 19.4242 11.505 19.0756C12.3604 18.7271 13.0931 18.1318 13.6103 17.3652C14.1274 16.5986 14.4057 15.6953 14.4097 14.77C14.4287 14.1557 14.3232 13.544 14.0997 12.9717C13.8763 12.3994 13.5394 11.8783 13.1095 11.4401C12.6796 11.0018 12.1656 10.6553 11.5984 10.4215C11.0312 10.1878 10.4226 10.0716 9.80939 10.08Z" fill="#3C3C3B"/>
<path d="M30.2864 24.4601C28.3701 24.4344 26.5042 23.841 24.9237 22.7546C23.3433 21.6682 22.1191 20.1374 21.4053 18.3551C20.6914 16.5728 20.5199 14.6186 20.9123 12.7387C21.3047 10.8589 22.2435 9.13744 23.6104 7.79127C24.9774 6.4451 26.7112 5.53441 28.5937 5.17392C30.4761 4.81343 32.4229 5.01927 34.1889 5.76549C35.9548 6.51172 37.4609 7.76496 38.5173 9.36734C39.5738 10.9697 40.1334 12.8496 40.1257 14.7701C40.1453 16.0625 39.9029 17.3454 39.4132 18.5411C38.9235 19.7369 38.1966 20.8205 37.2767 21.7265C36.3568 22.6325 35.2629 23.3419 34.0613 23.8118C32.8598 24.2817 31.5755 24.5022 30.2864 24.4601ZM30.2864 10.1101C29.3652 10.0622 28.4507 10.2918 27.6608 10.7692C26.8709 11.2466 26.2417 11.9501 25.8542 12.789C25.4667 13.6278 25.3386 14.5638 25.4865 15.4762C25.6344 16.3887 26.0515 17.2359 26.684 17.9087C27.3166 18.5816 28.1356 19.0493 29.0357 19.2516C29.9358 19.454 30.8758 19.3817 31.7345 19.0441C32.5932 18.7064 33.3315 18.119 33.8541 17.3573C34.3768 16.5955 34.66 15.6945 34.6672 14.7701C34.6899 14.1747 34.594 13.5806 34.3852 13.0227C34.1765 12.4647 33.8589 11.954 33.4512 11.5203C33.0434 11.0865 32.5536 10.7385 32.0103 10.4963C31.4669 10.2542 30.8809 10.1229 30.2864 10.1101Z" fill="#3C3C3B"/>
<path d="M47.8295 24.53C44.0175 24.53 40.8442 22.48 40.3951 18.46H45.8237C45.8839 18.9555 46.1343 19.4079 46.5218 19.7215C46.9093 20.0352 47.4034 20.1853 47.8994 20.14C48.7177 20.14 49.8054 19.68 49.8054 18.72C49.8054 17.4 48.3285 17.01 47.3405 16.61C46.5522 16.35 45.7539 16.08 44.9655 15.79C42.8001 14.99 40.6247 13.58 40.6247 11C40.6247 7.18 44.1772 5 47.6998 5C51.2224 5 54.3458 6.88 54.6851 10.77H49.3364C49.3364 9.77 48.5779 9.38 47.62 9.38C46.9015 9.38 46.0732 9.78 46.0732 10.6C46.0732 13.47 55.2639 11.86 55.2639 18.32C55.3238 22.42 51.5517 24.53 47.8295 24.53Z" fill="#3C3C3B"/>
<path d="M78.3853 24.53C77.3583 24.575 76.334 24.3942 75.3841 24.0003C74.4342 23.6064 73.5819 23.009 72.8869 22.25V30H67.4283V5.59003H72.5576V7.59003H72.6574C73.3394 6.73912 74.2087 6.05798 75.1972 5.59997C76.1858 5.14195 77.2667 4.9195 78.3554 4.95003C84.0135 4.95003 87.2767 9.60003 87.2767 14.95C87.2567 20.04 83.7241 24.53 78.3853 24.53ZM77.2777 10.08C76.3517 10.0542 75.4391 10.3055 74.6563 10.8018C73.8735 11.2981 73.2561 12.0169 72.8829 12.8664C72.5096 13.716 72.3975 14.6577 72.5607 15.5714C72.724 16.4852 73.1553 17.3294 73.7996 17.9963C74.4439 18.6633 75.2719 19.1227 76.1779 19.3159C77.0839 19.5092 78.0268 19.4274 78.8862 19.0812C79.7457 18.735 80.4827 18.1399 81.0031 17.372C81.5235 16.6042 81.8038 15.6983 81.8081 14.77C81.8254 14.162 81.7212 13.5567 81.5015 12.9897C81.2819 12.4227 80.9512 11.9054 80.5291 11.4684C80.1069 11.0314 79.6017 10.6834 79.0434 10.445C78.485 10.2065 77.8846 10.0825 77.2777 10.08Z" fill="#3C3C3B"/>
<path d="M106.826 16.41H93.1343C93.2912 17.4175 93.8162 18.3306 94.6074 18.9719C95.3986 19.6132 96.3994 19.9368 97.4153 19.88C98.0682 19.8923 98.7139 19.7416 99.294 19.4413C99.8742 19.141 100.371 18.7006 100.738 18.16H106.337C104.75 21.82 101.527 24.5 97.4153 24.5C95.469 24.5414 93.5549 23.9979 91.9195 22.9396C90.2841 21.8813 89.0023 20.3566 88.2392 18.5618C87.4761 16.7671 87.2666 14.7845 87.6378 12.8695C88.0089 10.9544 88.9437 9.19452 90.3217 7.8165C91.6997 6.43848 93.4579 5.50542 95.3697 5.13749C97.2815 4.76956 99.2595 4.98362 101.049 5.75208C102.838 6.52054 104.357 7.80822 105.41 9.44928C106.462 11.0903 107.001 13.0096 106.955 14.96C106.962 15.4465 106.919 15.9325 106.826 16.41ZM97.3455 9.58996C96.396 9.54377 95.4612 9.83868 94.7093 10.4216C93.9574 11.0046 93.4379 11.8373 93.2441 12.77H101.537C101.329 11.8271 100.794 10.9891 100.026 10.4063C99.2575 9.82349 98.3073 9.53408 97.3455 9.58996Z" fill="#3C3C3B"/>
<path d="M65.4525 11.14V5.45H62.1494V0H56.4714V17.42C56.4844 19.2725 57.2246 21.0454 58.5318 22.3553C59.8389 23.6652 61.6081 24.4069 63.4567 24.42H65.4525V18.77H63.4567C63.0968 18.77 62.7516 18.6267 62.497 18.3717C62.2425 18.1166 62.0995 17.7707 62.0995 17.41V11.14H65.4525Z" fill="#3C3C3B"/>
<path d="M110.658 24.46C112.702 24.46 114.36 22.799 114.36 20.75C114.36 18.7011 112.702 17.04 110.658 17.04C108.613 17.04 106.955 18.7011 106.955 20.75C106.955 22.799 108.613 24.46 110.658 24.46Z" fill="#009CDE"/>
<path d="M119.589 24.46C121.633 24.46 123.291 22.799 123.291 20.75C123.291 18.7011 121.633 17.04 119.589 17.04C117.544 17.04 115.887 18.7011 115.887 20.75C115.887 22.799 117.544 24.46 119.589 24.46Z" fill="#6B4795"/>
<path d="M128.52 24.46C130.565 24.46 132.222 22.799 132.222 20.75C132.222 18.7011 130.565 17.04 128.52 17.04C126.475 17.04 124.818 18.7011 124.818 20.75C124.818 22.799 126.475 24.46 128.52 24.46Z" fill="#E73178"/>
</svg>